<svg aria-hidden="true" style="position: absolute; width: 0; height: 0; overflow: hidden;" version="1.1"
    xmlns="http://www.w3.org/2000/svg" xmlns:xlink="http://www.w3.org/1999/xlink">
    <defs>
        <symbol id="icon-menu" viewBox="0 0 32 32">
            <path
                d="M2.666 8c0-0.354 0.14-0.693 0.391-0.943s0.589-0.391 0.943-0.391h24c0.354 0 0.693 0.14 0.943 0.391s0.39 0.589 0.39 0.943c0 0.354-0.14 0.693-0.39 0.943s-0.589 0.391-0.943 0.391h-24c-0.354 0-0.693-0.14-0.943-0.391s-0.391-0.589-0.391-0.943zM2.666 16.043c0-0.354 0.14-0.693 0.391-0.943s0.589-0.39 0.943-0.39h24c0.354 0 0.693 0.14 0.943 0.39s0.39 0.589 0.39 0.943c0 0.354-0.14 0.693-0.39 0.943s-0.589 0.39-0.943 0.39h-24c-0.354 0-0.693-0.14-0.943-0.39s-0.391-0.589-0.391-0.943zM4 22.752c-0.354 0-0.693 0.141-0.943 0.39s-0.391 0.589-0.391 0.943 0.14 0.693 0.391 0.943c0.25 0.25 0.589 0.39 0.943 0.39h24c0.354 0 0.693-0.14 0.943-0.39s0.39-0.589 0.39-0.943c0-0.354-0.14-0.693-0.39-0.943s-0.589-0.39-0.943-0.39h-24z">
            </path>
        </symbol>
        <symbol id="icon-rocket" viewBox="0 0 32 32">
            <path
                d="M7.233 13.633l3.533 1.5c0.4-0.8 0.828-1.589 1.283-2.367s0.939-1.522 1.45-2.233l-2.633-0.533-3.633 3.633zM12.367 16.333l4.433 4.433c1.267-0.578 2.456-1.233 3.567-1.967s2.011-1.444 2.7-2.133c1.8-1.8 3.122-3.644 3.967-5.533s1.3-4.022 1.367-6.4c-2.378 0.067-4.511 0.522-6.4 1.367s-3.733 2.167-5.533 3.967c-0.689 0.689-1.4 1.589-2.133 2.7s-1.389 2.3-1.967 3.567zM20 13.133c-0.444-0.444-0.667-0.995-0.667-1.65s0.222-1.206 0.667-1.65 0.994-0.667 1.65-0.667c0.656 0 1.206 0.222 1.65 0.667s0.667 0.994 0.667 1.65c0 0.655-0.222 1.206-0.667 1.65s-0.994 0.667-1.65 0.667-1.206-0.222-1.65-0.667zM19.5 25.9l3.633-3.633-0.533-2.633c-0.711 0.511-1.456 0.994-2.233 1.45s-1.567 0.883-2.367 1.283l1.5 3.533zM30.367 2.767c0.2 3.022-0.178 5.778-1.133 8.267s-2.533 4.833-4.733 7.033l-0.133 0.133 0.733 3.667c0.067 0.333 0.050 0.656-0.050 0.967s-0.272 0.589-0.517 0.833l-5.7 5.733-2.833-6.6-5.667-5.667-6.6-2.833 5.733-5.7c0.244-0.244 0.522-0.417 0.833-0.517s0.633-0.117 0.967-0.050l3.667 0.733c0.022-0.022 0.044-0.039 0.067-0.050s0.044-0.028 0.067-0.050c2.2-2.2 4.544-3.783 7.033-4.75s5.244-1.35 8.267-1.15zM5.967 21.167c0.778-0.778 1.728-1.172 2.85-1.183s2.072 0.372 2.85 1.15c0.778 0.778 1.161 1.728 1.15 2.85s-0.406 2.072-1.183 2.85c-0.578 0.578-1.472 1.055-2.683 1.433s-3.028 0.733-5.45 1.067c0.333-2.422 0.683-4.244 1.050-5.467s0.839-2.122 1.417-2.7zM7.367 22.6c-0.311 0.333-0.589 0.856-0.833 1.567s-0.456 1.622-0.633 2.733c1.111-0.178 2.022-0.389 2.733-0.633s1.233-0.522 1.567-0.833c0.422-0.378 0.639-0.85 0.65-1.417s-0.183-1.061-0.583-1.483c-0.422-0.4-0.917-0.595-1.483-0.583s-1.039 0.228-1.417 0.65z">
            </path>
        </symbol>
        <symbol id="icon-touch" viewBox="0 0 32 32">
            <path
                d="M15.5 1.333c2.022 0 3.75 0.706 5.183 2.117s2.15 3.128 2.15 5.15c0 1.156-0.25 2.244-0.75 3.267s-1.206 1.889-2.117 2.6h-1.133v-1.667c0.644-0.511 1.139-1.133 1.483-1.867s0.517-1.511 0.517-2.333c0-1.467-0.522-2.711-1.567-3.733s-2.3-1.533-3.767-1.533c-1.467 0-2.722 0.511-3.767 1.533s-1.567 2.267-1.567 3.733c0 0.822 0.172 1.6 0.517 2.333s0.839 1.356 1.483 1.867v2.4c-1.244-0.645-2.222-1.556-2.933-2.733s-1.067-2.467-1.067-3.867c0-2.022 0.717-3.739 2.15-5.15s3.161-2.117 5.183-2.117zM14.234 29.333c-0.378 0-0.733-0.072-1.067-0.217s-0.622-0.339-0.867-0.583l-6.867-6.867 1.867-1.933c0.311-0.311 0.661-0.55 1.050-0.717s0.794-0.194 1.217-0.083l2.6 0.6v-10.867c0-0.933 0.322-1.722 0.967-2.367s1.433-0.967 2.367-0.967c0.933 0 1.722 0.322 2.367 0.967s0.967 1.433 0.967 2.367v5.733h0.867c0.111 0 0.211 0.022 0.3 0.067s0.189 0.089 0.3 0.133l4.933 2.4c0.533 0.244 0.928 0.639 1.183 1.183s0.328 1.106 0.217 1.683l-1.2 7.267c-0.111 0.645-0.422 1.172-0.933 1.583s-1.089 0.617-1.733 0.617h-8.533zM13.967 27.333h9.367l1.433-8.3-6.1-3.033h-1.833v-7.333c0-0.4-0.122-0.722-0.367-0.967s-0.567-0.367-0.967-0.367-0.722 0.122-0.967 0.367c-0.245 0.244-0.367 0.567-0.367 0.967v13.3l-5.133-1.1-0.767 0.767 5.7 5.7zM23.334 27.333v0z">
            </path>
        </symbol>
        <symbol id="icon-arrow-l" viewBox="0 0 18 32">
            <path
                d="M0.48 16.965l14.861 14.16c0.248 0.236 0.577 0.368 0.92 0.368s0.672-0.132 0.92-0.368l0.016-0.016c0.121-0.115 0.217-0.252 0.282-0.405s0.1-0.317 0.1-0.484-0.034-0.331-0.1-0.484c-0.066-0.153-0.162-0.291-0.282-0.405l-13.995-13.333 13.995-13.328c0.121-0.115 0.217-0.253 0.282-0.405s0.1-0.318 0.1-0.484-0.034-0.331-0.1-0.484c-0.066-0.153-0.162-0.291-0.282-0.405l-0.016-0.016c-0.248-0.236-0.578-0.368-0.92-0.368s-0.672 0.132-0.92 0.368l-14.861 14.16c-0.131 0.125-0.235 0.274-0.306 0.44s-0.108 0.345-0.108 0.525c0 0.181 0.037 0.359 0.108 0.525s0.175 0.316 0.306 0.44z">
            </path>
        </symbol>
        <symbol id="icon-arrow-r" viewBox="0 0 18 32">
            <path
                d="M17.653 15.035l-14.861-14.16c-0.248-0.236-0.577-0.368-0.92-0.368s-0.672 0.132-0.92 0.368l-0.016 0.016c-0.121 0.115-0.217 0.253-0.282 0.405s-0.099 0.318-0.099 0.484c0 0.166 0.034 0.331 0.099 0.484s0.162 0.291 0.282 0.405l13.995 13.333-13.995 13.328c-0.121 0.115-0.217 0.252-0.282 0.405s-0.099 0.317-0.099 0.484 0.034 0.331 0.099 0.484c0.066 0.153 0.162 0.291 0.282 0.405l0.016 0.016c0.248 0.236 0.577 0.368 0.92 0.368s0.672-0.132 0.92-0.368l14.861-14.16c0.131-0.125 0.235-0.274 0.306-0.44s0.108-0.345 0.108-0.525c0-0.181-0.037-0.359-0.108-0.525s-0.175-0.316-0.306-0.44z">
            </path>
        </symbol>
        <symbol id="icon-stars" viewBox="0 0 200 32">
            <path fill="#ffe550" style="fill: var(--color1, #ffe550)"
                d="M15.64 1.038c0.592-1.384 2.61-1.384 3.204 0l3.496 8.162c0.25 0.582 0.814 0.98 1.462 1.032l9.080 0.706c1.54 0.12 2.162 1.982 0.99 2.958l-6.918 5.752c-0.371 0.306-0.606 0.766-0.606 1.281 0 0.138 0.017 0.272 0.049 0.401l-0.002-0.011 2.114 8.6c0.36 1.456-1.274 2.608-2.592 1.828l-7.772-4.61c-0.259-0.155-0.571-0.247-0.904-0.247s-0.645 0.092-0.912 0.251l0.008-0.005-7.774 4.61c-1.318 0.78-2.95-0.372-2.592-1.828l2.114-8.6c0.029-0.117 0.046-0.251 0.046-0.389 0-0.515-0.235-0.975-0.604-1.279l-0.003-0.002-6.916-5.75c-1.172-0.978-0.548-2.84 0.992-2.96l9.080-0.704c0.655-0.048 1.206-0.454 1.46-1.021l0.004-0.011 3.496-8.164zM57.020 1.038c0.59-1.384 2.61-1.384 3.202 0l3.5 8.164c0.248 0.582 0.812 0.98 1.46 1.032l9.080 0.706c1.54 0.12 2.162 1.982 0.99 2.958l-6.916 5.752c-0.371 0.306-0.606 0.766-0.606 1.281 0 0.138 0.017 0.272 0.049 0.401l-0.002-0.011 2.114 8.6c0.358 1.456-1.276 2.608-2.592 1.828l-7.774-4.61c-0.259-0.155-0.571-0.247-0.904-0.247s-0.645 0.092-0.912 0.251l0.008-0.005-7.774 4.61c-1.316 0.78-2.95-0.372-2.592-1.828l2.114-8.6c0.029-0.117 0.046-0.251 0.046-0.389 0-0.515-0.235-0.975-0.604-1.279l-0.003-0.002-6.916-5.752c-1.172-0.976-0.548-2.84 0.99-2.96l9.080-0.704c0.655-0.048 1.204-0.454 1.458-1.021l0.004-0.011 3.5-8.164zM98.398 1.038c0.592-1.384 2.61-1.384 3.204 0l3.496 8.162c0.252 0.582 0.816 0.98 1.464 1.032l9.080 0.706c1.54 0.12 2.16 1.982 0.99 2.958l-6.918 5.752c-0.371 0.306-0.606 0.766-0.606 1.281 0 0.138 0.017 0.272 0.049 0.401l-0.002-0.011 2.114 8.6c0.36 1.456-1.274 2.608-2.592 1.828l-7.772-4.61c-0.259-0.155-0.571-0.247-0.905-0.247s-0.646 0.092-0.913 0.252l0.008-0.005-7.772 4.61c-1.318 0.78-2.95-0.372-2.592-1.828l2.112-8.6c0.030-0.117 0.047-0.252 0.047-0.39 0-0.514-0.234-0.974-0.602-1.277l-0.003-0.002-6.918-5.752c-1.172-0.976-0.548-2.84 0.99-2.96l9.080-0.704c0.655-0.048 1.206-0.454 1.46-1.021l0.004-0.011 3.498-8.162zM139.78 1.038c0.59-1.384 2.61-1.384 3.202 0l3.498 8.162c0.25 0.582 0.814 0.98 1.464 1.032l9.080 0.706c1.538 0.12 2.16 1.982 0.988 2.958l-6.916 5.752c-0.371 0.306-0.606 0.766-0.606 1.281 0 0.138 0.017 0.272 0.049 0.401l-0.002-0.011 2.114 8.6c0.358 1.456-1.276 2.608-2.592 1.828l-7.774-4.61c-0.259-0.155-0.571-0.247-0.904-0.247s-0.645 0.092-0.912 0.251l0.008-0.005-7.774 4.61c-1.316 0.78-2.95-0.372-2.592-1.828l2.114-8.6c0.029-0.117 0.046-0.251 0.046-0.389 0-0.515-0.235-0.975-0.604-1.279l-0.003-0.002-6.916-5.752c-1.172-0.976-0.548-2.84 0.99-2.96l9.080-0.704c0.655-0.048 1.204-0.454 1.458-1.021l0.004-0.011 3.5-8.162zM181.158 1.038c0.592-1.384 2.61-1.384 3.204 0l3.494 8.162c0.25 0.582 0.816 0.98 1.464 1.032l9.080 0.706c1.538 0.12 2.162 1.982 0.99 2.958l-6.918 5.752c-0.371 0.306-0.606 0.766-0.606 1.281 0 0.138 0.017 0.272 0.049 0.401l-0.002-0.011 2.114 8.6c0.36 1.456-1.274 2.608-2.592 1.828l-7.772-4.61c-0.259-0.155-0.571-0.247-0.905-0.247s-0.646 0.092-0.913 0.252l0.008-0.005-7.772 4.61c-1.318 0.78-2.95-0.372-2.592-1.828l2.112-8.6c0.029-0.117 0.046-0.251 0.046-0.389 0-0.515-0.235-0.975-0.604-1.279l-0.003-0.002-6.916-5.752c-1.172-0.976-0.548-2.84 0.99-2.96l9.080-0.704c0.655-0.048 1.204-0.454 1.458-1.021l0.004-0.011 3.504-8.162z">
            </path>
        </symbol>
        <symbol id="icon-star" viewBox="0 0 17 16">
            <path fill="#ffe550" style="fill: var(--color1, #ffe550)"
                d="M15.421 1.037c0.584-1.383 2.575-1.383 3.159 0l3.449 8.164c0.247 0.583 0.804 0.982 1.443 1.032l8.952 0.707c1.517 0.12 2.132 1.983 0.976 2.958l-6.821 5.752c-0.487 0.411-0.7 1.056-0.551 1.67l2.084 8.6c0.353 1.457-1.257 2.609-2.556 1.828l-7.664-4.609c-0.547-0.329-1.236-0.329-1.783 0l-7.664 4.609c-1.299 0.781-2.909-0.371-2.556-1.828l2.084-8.6c0.149-0.614-0.064-1.259-0.551-1.67l-6.821-5.752c-1.156-0.975-0.541-2.838 0.976-2.958l8.952-0.707c0.639-0.050 1.196-0.449 1.443-1.032l3.449-8.164z">
            </path>
        </symbol>
        <symbol id="icon-modal-close">
            <path
                d="M15 4.108 13.892 3 9.5 7.392 5.108 3 4 4.108 8.392 8.5 4 12.892 5.108 14 9.5 9.608 13.892 14 15 12.892 10.608 8.5 15 4.108Z">
            </path>
        </symbol>
        <symbol id="frame-icon" viewBox="0 0 32 32">
            <path fill="none" stroke="#ff705d" style="stroke: var(--color1, #ff705d)" stroke-linejoin="round"
                stroke-linecap="round" stroke-miterlimit="4" stroke-width="2.2853"
                d="M16 11.429v6.856M16 26.285c0.017 0.001 0.036 0.001 0.055 0.001 0.632 0 1.144-0.512 1.144-1.144s-0.512-1.144-1.144-1.144c-0.019 0-0.039 0-0.058 0.001l0.003-0c-0.608 0.030-1.089 0.53-1.089 1.143s0.481 1.112 1.086 1.143l0.003 0z">
            </path>
            <path fill="none" stroke="#ff705d" style="stroke: var(--color1, #ff705d)" stroke-linejoin="round"
                stroke-linecap="round" stroke-miterlimit="4" stroke-width="2.2853"
                d="M18.035 2.4c-0.387-0.743-1.152-1.242-2.033-1.242s-1.646 0.499-2.027 1.23l-0.006 0.013-12.573 25.141c-0.154 0.3-0.245 0.654-0.245 1.029 0 1.26 1.020 2.282 2.279 2.285h25.144c1.259-0.004 2.278-1.026 2.278-2.285 0-0.374-0.090-0.728-0.25-1.040l0.006 0.013-12.573-25.147z">
            </path>
        </symbol>

    </defs>
</svg>